<svg xmlns="http://www.w3.org/2000/svg" xmlns:xlink="http://www.w3.org/1999/xlink" width="184" height="35.897" viewBox="0 0 184 35.897"><path d="M36.774,16.645a4.487,4.487,0,0,1-.367,1.81,4.692,4.692,0,0,1-2.482,2.474,4.5,4.5,0,0,1-1.8.367H2V15.318a9.468,9.468,0,0,1,.312-2.388,10.425,10.425,0,0,1,.89-2.287,9.685,9.685,0,0,1,1.4-1.99,8.261,8.261,0,0,1,1.873-1.53l2.606-1.53A9.841,9.841,0,0,1,7.65,3.6a9.436,9.436,0,0,1-.78-1.967A10.191,10.191,0,0,1,6.542-.391Q6.479-1.429,6.479-2.6V-4.5A9.921,9.921,0,0,1,6.838-7.18,10.008,10.008,0,0,1,7.861-9.592a10.244,10.244,0,0,1,1.584-2.045,10.244,10.244,0,0,1,2.045-1.584A10.008,10.008,0,0,1,13.9-14.243a9.921,9.921,0,0,1,2.677-.359,10.006,10.006,0,0,1,2.685.359,9.835,9.835,0,0,1,2.411,1.022,10.345,10.345,0,0,1,2.037,1.584A10.345,10.345,0,0,1,25.294-9.6a9.835,9.835,0,0,1,1.022,2.411A10.006,10.006,0,0,1,26.676-4.5q0,.577.008,1.147t.008,1.132q0,.7-.031,1.389A12.286,12.286,0,0,1,26.52.538,6.082,6.082,0,0,1,27.7.124a5.289,5.289,0,0,1,1.241-.148,5.343,5.343,0,0,1,2.169.445,5.7,5.7,0,0,1,2.981,3.012,5.559,5.559,0,0,1-.148,4.643,5.642,5.642,0,0,1-1.615,1.967l3.2,3.418A4.517,4.517,0,0,1,36.774,16.645ZM16.593,6.7a7.616,7.616,0,0,0,3.051-.616,7.924,7.924,0,0,0,2.489-1.678,7.924,7.924,0,0,0,1.678-2.489,7.616,7.616,0,0,0,.616-3.051V-2.256H23.32V-4.5H18.809a4.289,4.289,0,0,1-1.74-.359,4.619,4.619,0,0,1-1.428-.968,4.51,4.51,0,0,1-.96-1.428A4.371,4.371,0,0,1,14.33-9a4.354,4.354,0,0,0-1.748.351,4.534,4.534,0,0,0-1.42.96,4.51,4.51,0,0,0-.96,1.428A4.41,4.41,0,0,0,9.851-4.5v2.247H8.727q0,.609.016,1.163A10.52,10.52,0,0,0,8.828-.008a8.506,8.506,0,0,0,.211,1.061,6.4,6.4,0,0,0,.406,1.093,7.7,7.7,0,0,0,1.225,1.9,7.565,7.565,0,0,0,1.678,1.428,8.17,8.17,0,0,0,2.013.905A7.8,7.8,0,0,0,16.593,6.7ZM26.972,19.048l-.094-.2a2.018,2.018,0,0,1-.991-.8,2.3,2.3,0,0,1-.336-1.241V14.553a2.23,2.23,0,0,1,.265-1.061,2.128,2.128,0,0,1,.812-.882,2.3,2.3,0,0,1,1.171-.289h2.247V8.763a3.537,3.537,0,0,0,.929-.5,3.2,3.2,0,0,0,.7-.726,3.512,3.512,0,0,0,.453-.905,3.261,3.261,0,0,0,.164-1.038,3.211,3.211,0,0,0-.164-1.022,3.253,3.253,0,0,0-.468-.905,3.687,3.687,0,0,0-.718-.734,3.56,3.56,0,0,0-.9-.507V5.595H27.8V2.426a3.353,3.353,0,0,0-.905.507,3.794,3.794,0,0,0-.71.734,3.253,3.253,0,0,0-.468.905,3.211,3.211,0,0,0-.164,1.022,3.261,3.261,0,0,0,.164,1.038,3.512,3.512,0,0,0,.453.905,3.2,3.2,0,0,0,.7.726,3.537,3.537,0,0,0,.929.5v2.606A6.91,6.91,0,0,0,26.34,9.653a7.635,7.635,0,0,0-1.912-1.186v8.35a1.054,1.054,0,0,0,.336.78,1.092,1.092,0,0,0,.788.328v1.124Zm5.15,0a2.271,2.271,0,0,0,.936-.2,2.528,2.528,0,0,0,.765-.523,2.416,2.416,0,0,0,.515-.765,2.352,2.352,0,0,0,.187-.936,2.431,2.431,0,0,0-.64-1.639q-.656-.749-1.358-1.452t-1.358-1.452v1.358H27.8a1.113,1.113,0,0,0-.812.3,1.072,1.072,0,0,0-.312.8V16.8A1.071,1.071,0,0,0,27.8,17.925a1.071,1.071,0,0,0,1.124,1.124Zm-24.52,0V17.925a1.105,1.105,0,0,0,.788-.32,1.046,1.046,0,0,0,.336-.788V8.466A7.5,7.5,0,0,0,6.885,9.629a7.624,7.624,0,0,0-1.412,1.6,7.486,7.486,0,0,0-.905,1.935,7.32,7.32,0,0,0-.32,2.154v3.73Zm3.371-4.479H22.2V9.418L18.825,12.79q-.546-.593-1.116-1.139t-1.132-1.108q-.531.593-1.108,1.124T14.346,12.79L10.974,9.418ZM22.2,7.842,21.072,6.718h-.14a9.379,9.379,0,0,1-1.53.663,8.761,8.761,0,0,1-1.623.367,13.1,13.1,0,0,1-1.2,1.2,13.1,13.1,0,0,1-1.2-1.2,8.643,8.643,0,0,1-3.137-1.03H12.1L10.974,7.842,14.346,11.2l2.232-2.232L18.825,11.2ZM19.949-3.38a1.084,1.084,0,0,1,.8.328,1.084,1.084,0,0,1,.328.8v1.124a1.054,1.054,0,0,1-.336.78,1.092,1.092,0,0,1-.788.328,1.092,1.092,0,0,1-.788-.328,1.054,1.054,0,0,1-.336-.78V-2.256a1.084,1.084,0,0,1,.328-.8A1.084,1.084,0,0,1,19.949-3.38Zm-5.6,2.247a1.054,1.054,0,0,1-.336.78,1.092,1.092,0,0,1-.788.328,1.092,1.092,0,0,1-.788-.328,1.054,1.054,0,0,1-.336-.78V-2.256a1.084,1.084,0,0,1,.328-.8,1.084,1.084,0,0,1,.8-.328,1.079,1.079,0,0,1,.788.336,1.079,1.079,0,0,1,.336.788Zm2.232,4.511a1.588,1.588,0,0,0,.609-.109,3.27,3.27,0,0,0,.468-.234q.2-.125.351-.234a.489.489,0,0,1,.289-.109.533.533,0,0,1,.531.531.673.673,0,0,1-.265.523,2.652,2.652,0,0,1-.624.39,3.768,3.768,0,0,1-.741.25,2.96,2.96,0,0,1-.616.086,2.854,2.854,0,0,1-.609-.086,4.012,4.012,0,0,1-.741-.25,2.47,2.47,0,0,1-.632-.4.682.682,0,0,1-.265-.515.5.5,0,0,1,.164-.375.537.537,0,0,1,.382-.156.489.489,0,0,1,.289.109q.148.109.343.234a3.05,3.05,0,0,0,.453.234A1.574,1.574,0,0,0,16.577,3.378Zm0-2.279a1.084,1.084,0,0,1-.8-.328,1.084,1.084,0,0,1-.328-.8h2.232a1.092,1.092,0,0,1-.328.788A1.054,1.054,0,0,1,16.577,1.1Z" transform="translate(-2.426 14.602)" fill="#00a8d8"/><text transform="translate(46 28)" fill="#00a8d8" font-size="35" font-family="CircularStd-Bold, Circular Std Bold" font-weight="700" letter-spacing="-0.05em"><tspan x="0" y="0">exivity/ui</tspan></text></svg>
